<svg width="35" height="35" viewBox="-10 -10 50 50" xmlns="http://www.w3.org/2000/svg"><g id="svgGroup" stroke-linecap="round" fill-rule="evenodd" font-size="9pt" stroke="#000" stroke-width="4" fill="#000" style="stroke:#25496f;stroke-width:4;fill:#25496f"><path d="M 9.122 28.079 A 14.152 14.152 0 0 0 13.44 28.72 Q 17.32 28.72 20.38 26.9 Q 23.44 25.08 25.16 21.8 Q 26.88 18.52 26.88 14.36 Q 26.88 10.2 25.16 6.92 Q 23.44 3.64 20.38 1.82 A 12.579 12.579 0 0 0 17.759 0.642 A 14.152 14.152 0 0 0 13.44 0 Q 9.56 0 6.5 1.82 Q 3.44 3.64 1.72 6.92 Q 0 10.2 0 14.36 Q 0 18.52 1.72 21.8 Q 3.44 25.08 6.5 26.9 A 12.579 12.579 0 0 0 9.122 28.079 Z M 13.44 28 A 12.867 12.867 0 0 0 18.313 27.086 A 12.277 12.277 0 0 0 19.84 26.34 Q 22.72 24.68 24.38 21.58 A 13.868 13.868 0 0 0 25.844 17.072 A 18.11 18.11 0 0 0 26.04 14.36 Q 26.04 10.24 24.38 7.14 A 12.079 12.079 0 0 0 21.443 3.493 A 11.513 11.513 0 0 0 19.84 2.38 A 12.537 12.537 0 0 0 13.66 0.722 A 14.802 14.802 0 0 0 13.44 0.72 A 12.867 12.867 0 0 0 8.568 1.635 A 12.277 12.277 0 0 0 7.04 2.38 Q 4.16 4.04 2.5 7.14 A 13.868 13.868 0 0 0 1.036 11.648 A 18.11 18.11 0 0 0 0.84 14.36 Q 0.84 18.48 2.5 21.58 A 12.079 12.079 0 0 0 5.438 25.228 A 11.513 11.513 0 0 0 7.04 26.34 A 12.537 12.537 0 0 0 13.221 27.999 A 14.802 14.802 0 0 0 13.44 28 Z" vector-effect="non-scaling-stroke"/></g></svg>